<?xml version="1.0" standalone="no"?>
<!DOCTYPE svg PUBLIC "-//W3C//DTD SVG 20010904//EN"
 "http://www.w3.org/TR/2001/REC-SVG-20010904/DTD/svg10.dtd">
<svg version="1.0" xmlns="http://www.w3.org/2000/svg"
 width="300.000000pt" height="300.000000pt" viewBox="0 0 300.000000 300.000000"
 preserveAspectRatio="xMidYMid meet">
<metadata>
Created by potrace 1.14, written by Peter Selinger 2001-2017
</metadata>
<g transform="translate(0.000000,300.000000) scale(0.100000,-0.100000)"
fill="#000000" stroke="none">
<path d="M273 1978 c2 -7 20 -13 39 -13 20 0 39 -2 42 -5 2 -3 -6 -50 -18
-103 -20 -85 -21 -99 -9 -104 21 -8 28 7 48 101 23 106 26 111 71 111 21 0 39
5 41 13 4 9 -22 12 -107 12 -85 0 -111 -3 -107 -12z"/>
<path d="M488 1875 c-13 -64 -21 -118 -17 -120 14 -9 37 25 44 66 7 43 43 89
68 89 26 0 37 -24 28 -61 -22 -87 -22 -89 -2 -89 15 0 22 11 30 50 14 64 14
107 1 115 -14 9 -61 9 -88 1 -20 -7 -21 -5 -12 19 14 37 13 45 -8 45 -15 0
-23 -20 -44 -115z"/>
<path d="M763 1929 c-40 -8 -60 -23 -79 -60 -18 -36 -17 -69 2 -94 11 -15 27
-20 64 -20 41 0 54 5 77 28 21 21 24 27 11 27 -9 0 -29 -7 -45 -17 -37 -21
-83 -11 -83 17 0 17 8 19 73 22 67 3 72 5 75 26 4 28 -20 68 -45 74 -10 2 -33
1 -50 -3z m45 -31 c26 -26 13 -38 -39 -38 -55 0 -62 15 -18 37 30 16 42 16 57
1z"/>
<path d="M1762 1917 c-13 -16 -212 -349 -212 -354 0 -2 -11 -19 -25 -37 -14
-18 -25 -35 -25 -38 0 -6 -247 -417 -261 -435 -6 -6 -6 -14 -2 -16 5 -3 71 -5
148 -4 l140 2 24 53 24 52 109 0 c59 0 109 -3 109 -7 2 -9 6 -60 8 -85 1 -17
22 -18 300 -18 l298 0 29 118 c29 116 30 117 60 120 49 5 59 -17 59 -132 l0
-101 145 0 145 0 9 140 8 140 -35 30 -36 31 33 12 c71 26 125 97 126 165 0 41
-34 99 -72 122 -31 19 -51 20 -322 20 l-290 0 -36 -150 c-20 -82 -49 -204 -64
-270 -31 -137 -41 -168 -49 -145 -2 8 -14 98 -26 200 -12 102 -23 196 -26 210
-2 14 -13 102 -25 195 -12 94 -26 174 -31 180 -14 15 -226 16 -237 2z m846
-383 c28 -19 28 -57 0 -84 -20 -18 -33 -22 -73 -22 -42 0 -42 -1 -27 62 14 57
16 60 46 60 17 0 42 -7 54 -16z m-820 -116 l-3 -113 -53 1 c-28 0 -54 3 -56 5
-6 6 97 217 107 218 4 1 6 -50 5 -111z"/>
<path d="M394 1715 c-155 -33 -261 -137 -266 -260 -3 -85 59 -130 223 -165 51
-11 103 -27 116 -35 48 -32 12 -85 -57 -85 -51 0 -64 12 -69 63 -1 4 -65 6
-143 5 l-143 -3 -3 -42 c-10 -136 167 -209 420 -173 188 26 299 114 315 249
11 97 -48 147 -223 188 -120 28 -153 48 -135 80 23 43 84 46 117 6 l22 -25
206 0 c113 0 208 -3 210 -6 2 -4 -22 -110 -54 -237 -31 -126 -55 -233 -53
-237 4 -8 303 -11 303 -3 0 2 24 100 54 217 29 117 56 225 60 240 6 27 6 27
99 26 l92 0 17 61 c9 33 19 74 23 91 l7 30 -343 -2 -343 -3 -8 -32 c-10 -40
-14 -40 -40 -8 -38 49 -124 73 -262 73 -44 0 -109 -6 -142 -13z"/>
</g>
</svg>
